<svg xmlns="http://www.w3.org/2000/svg" width="500" height="500" viewBox="0 0 500 500">
  <rect width="500" height="500" fill="#FCF9F1"/>
  <ellipse cx="250.0" cy="325.0" rx="83.3" ry="12.75" fill="#241E17" opacity="0.10"/>
    <defs><linearGradient id="grad44" x1="0%" y1="0%" x2="100%" y2="100%">
      <stop offset="0%" stop-color="#8d8576"/>
      <stop offset="55%" stop-color="#6E6350"/>
      <stop offset="100%" stop-color="#4f4739"/>
    </linearGradient></defs>
    <g transform="translate(250.0,240.0) scale(0.85)">
      <path d="M -68,-58 L -108,-26 L -82,14 L -54,-6 L -54,92 L 54,92 L 54,-6 L 82,14 L 108,-26 L 68,-58
               C 52,-80 24,-92 0,-92 C -24,-92 -52,-80 -68,-58 Z"
            fill="url(#grad44)" stroke="#3c362c" stroke-width="2.5" stroke-linejoin="round"/>
      <path d="M -28,-90 C -18,-72 18,-72 28,-90" fill="none" stroke="#3c362c" stroke-width="2.5"/>
      <path d="M -28,-90 C -18,-74 18,-74 28,-90" fill="none" stroke="#a0998d" stroke-width="1" stroke-dasharray="1.5 2.5" opacity="0.8"/>
      <path d="M -54,-4 L -54,86" stroke="#3c362c" stroke-opacity="0.28" stroke-width="1.4" stroke-dasharray="1.5 2.5"/>
      <path d="M 54,-4 L 54,86" stroke="#3c362c" stroke-opacity="0.28" stroke-width="1.4" stroke-dasharray="1.5 2.5"/>
      <path d="M -20,-2 C -10,4 10,4 20,-2" fill="none" stroke="#a8a196" stroke-width="1.2" opacity="0.5"/>
    </g>
</svg>